<svg width="180" height="45" viewBox="0 0 180 45" fill="none" xmlns="http://www.w3.org/2000/svg">
<path d="M22.5215 3.21628C22.5579 3.24507 22.5882 3.28087 22.6105 3.32157C22.6329 3.36227 22.6468 3.40704 22.6516 3.45322C22.6563 3.4994 22.6517 3.54606 22.6381 3.59044C22.6244 3.63481 22.6021 3.67601 22.5722 3.71158C20.4194 6.27518 19.3105 9.27168 19.2455 12.7011C19.1259 19.1881 19.1519 26.5968 19.3235 34.9272C19.3282 35.1088 19.3817 35.2858 19.4785 35.4395C19.5752 35.5933 19.7117 35.7181 19.8734 35.8008C20.4402 36.0868 21.0694 36.2493 21.761 36.2883C24.1634 36.4157 25.3997 35.2366 25.4699 32.751C25.4959 31.7812 25.5128 28.8419 25.5206 23.9331C25.5204 23.8243 25.5615 23.7195 25.6355 23.6405C25.7095 23.5614 25.8108 23.514 25.9184 23.508C26.7816 23.4586 28.5158 23.4404 31.121 23.4534C33.1607 23.4612 34.7597 23.1921 35.5202 21.4839C35.7698 20.9223 35.8348 20.2463 35.7152 19.4559C35.4604 17.8049 34.3476 16.9508 32.3768 16.8936C30.8532 16.8494 28.7212 16.8299 25.9808 16.8351C25.8724 16.8365 25.7674 16.7968 25.6865 16.7239C25.6056 16.6509 25.5548 16.5501 25.544 16.4412C25.2788 13.5279 25.4855 9.21448 27.065 6.68338C29.5246 2.74178 33.019 0.560383 37.5482 0.139183C40.3068 -0.118217 42.9861 0.344582 45.5861 1.52758C50.3857 3.71158 53.0104 7.49718 53.4602 12.8844C54.1973 21.6516 48.7178 27.2013 42.7547 32.517C39.4813 35.4394 35.4552 38.757 30.6764 42.4698C29.561 43.3356 27.9854 44.5563 26.597 44.7552C25.7364 44.88 24.7536 44.5225 23.6486 43.6827C18.4902 39.7671 13.3253 35.2743 8.15393 30.2043C5.65793 27.759 3.23603 25.1694 1.69163 21.7374C-0.562574 16.7142 -0.563875 11.8197 1.68773 7.05388C2.80573 4.68268 4.66733 2.87698 7.27253 1.63678C12.7689 -0.984018 17.8519 -0.457517 22.5215 3.21628Z" fill="#7833DC"/>
<path d="M82.8349 14.5389C84.2069 14.5389 85.3192 13.4267 85.3192 12.0546C85.3192 10.6826 84.2069 9.57031 82.8349 9.57031C81.4628 9.57031 80.3506 10.6826 80.3506 12.0546C80.3506 13.4267 81.4628 14.5389 82.8349 14.5389Z" fill="black"/>
<path d="M143.465 14.9296C144.826 14.9296 145.93 13.8261 145.93 12.4648C145.93 11.1035 144.826 10 143.465 10C142.104 10 141 11.1035 141 12.4648C141 13.8261 142.104 14.9296 143.465 14.9296Z" fill="black"/>
<path d="M63.6976 10.8047H77.0512C77.106 10.8047 77.1602 10.8155 77.2109 10.8365C77.2615 10.8574 77.3075 10.8882 77.3462 10.9269C77.385 10.9657 77.4157 11.0117 77.4367 11.0623C77.4577 11.1129 77.4685 11.1672 77.4685 11.222V14.0222C77.4685 14.077 77.4577 14.1313 77.4367 14.1819C77.4157 14.2325 77.385 14.2785 77.3462 14.3173C77.3075 14.356 77.2615 14.3868 77.2109 14.4077C77.1602 14.4287 77.106 14.4395 77.0512 14.4395H68.5141C68.4034 14.4395 68.2973 14.4835 68.219 14.5617C68.1407 14.64 68.0968 14.7461 68.0968 14.8568V20.1998C68.0968 20.3105 68.1407 20.4166 68.219 20.4949C68.2973 20.5731 68.4034 20.6171 68.5141 20.6171H76.1152C76.2258 20.6171 76.332 20.6611 76.4103 20.7393C76.4885 20.8176 76.5325 20.9237 76.5325 21.0344V23.8463C76.5325 23.957 76.4885 24.0631 76.4103 24.1414C76.332 24.2196 76.2258 24.2636 76.1152 24.2636H68.5297C68.419 24.2636 68.3129 24.3076 68.2346 24.3858C68.1563 24.4641 68.1124 24.5702 68.1124 24.6809V33.4403C68.1124 33.551 68.0684 33.6571 67.9902 33.7354C67.9119 33.8136 67.8058 33.8576 67.6951 33.8576H63.6976C63.5869 33.8576 63.4808 33.8136 63.4025 33.7354C63.3242 33.6571 63.2803 33.551 63.2803 33.4403V11.222C63.2803 11.1113 63.3242 11.0052 63.4025 10.9269C63.4808 10.8487 63.5869 10.8047 63.6976 10.8047Z" fill="black"/>
<path d="M99.406 18.862C99.4237 18.8831 99.4476 18.8982 99.4743 18.9051C99.501 18.912 99.5292 18.9104 99.5549 18.9005C99.5807 18.8906 99.6027 18.873 99.6179 18.85C99.6332 18.827 99.6409 18.7999 99.64 18.7723V11.218C99.64 11.1597 99.6515 11.1018 99.6738 11.0479C99.6962 10.994 99.7289 10.9449 99.7702 10.9037C99.8115 10.8624 99.8605 10.8296 99.9144 10.8073C99.9684 10.7849 100.026 10.7734 100.085 10.7734H103.832C103.872 10.7734 103.911 10.7812 103.947 10.7963C103.984 10.8114 104.017 10.8335 104.045 10.8614C104.073 10.8893 104.095 10.9224 104.11 10.9588C104.125 10.9952 104.133 11.0343 104.133 11.0737V33.6664C104.133 33.7069 104.125 33.747 104.11 33.7843C104.094 33.8217 104.072 33.8557 104.044 33.8843C104.015 33.9129 103.982 33.9356 103.945 33.9511C103.908 33.9666 103.869 33.9745 103.829 33.9745H100.241C100.193 33.9745 100.146 33.9651 100.102 33.9469C100.058 33.9287 100.018 33.902 99.9841 33.8683C99.9504 33.8346 99.9237 33.7946 99.9055 33.7506C99.8873 33.7066 99.8779 33.6595 99.8779 33.6118V31.8802C99.8783 31.8235 99.86 31.7685 99.8257 31.7236C99.7914 31.6787 99.743 31.6465 99.688 31.6319C99.633 31.6172 99.5745 31.621 99.5214 31.6426C99.4683 31.6643 99.4236 31.7025 99.3943 31.7515C98.0293 34.0837 95.2759 35.1016 92.7292 34.1305C90.0226 33.0983 88.4184 31.0053 87.9166 27.8515C87.082 22.6021 88.7122 15.9214 95.4124 16.4518C96.1404 16.509 96.7371 16.6494 97.2025 16.873C98.353 17.4268 98.6767 18.0274 99.406 18.862ZM99.6237 23.5173C99.6253 22.6009 99.2628 21.7214 98.6159 21.0722C97.969 20.4231 97.0908 20.0575 96.1744 20.0559L95.6596 20.055C94.7431 20.0534 93.8636 20.4159 93.2145 21.0628C92.5653 21.7097 92.1997 22.5879 92.1981 23.5044L92.1916 27.2328C92.19 28.1492 92.5526 29.0287 93.1994 29.6778C93.8463 30.327 94.7246 30.6926 95.641 30.6942L96.1558 30.6951C97.0722 30.6967 97.9517 30.3341 98.6009 29.6873C99.25 29.0404 99.6156 28.1621 99.6172 27.2457L99.6237 23.5173Z" fill="black"/>
<path d="M129.654 10.7773H126.425C126.151 10.7773 125.93 10.9991 125.93 11.2726V33.487C125.93 33.7606 126.151 33.9823 126.425 33.9823H129.654C129.928 33.9823 130.149 33.7606 130.149 33.487V11.2726C130.149 10.9991 129.928 10.7773 129.654 10.7773Z" fill="black"/>
<path d="M129.654 10.7773H126.425C126.151 10.7773 125.93 10.9991 125.93 11.2726V33.487C125.93 33.7606 126.151 33.9823 126.425 33.9823H129.654C129.928 33.9823 130.149 33.7606 130.149 33.487V11.2726C130.149 10.9991 129.928 10.7773 129.654 10.7773Z" fill="black"/>
<path d="M160.397 16.3251C160.52 16.3251 160.639 16.3744 160.726 16.4622C160.813 16.5499 160.862 16.669 160.862 16.7931V19.1448C160.862 19.2669 160.813 19.3839 160.726 19.4702C160.639 19.5565 160.52 19.605 160.397 19.605H157.305C157.279 19.605 157.253 19.6102 157.229 19.6202C157.205 19.6303 157.184 19.645 157.165 19.6635C157.147 19.682 157.133 19.704 157.123 19.7281C157.114 19.7522 157.109 19.778 157.11 19.8039C157.131 23.1449 157.134 25.7722 157.121 27.6858C157.106 29.8971 158.564 30.4548 160.448 30.2169C160.506 30.2103 160.564 30.216 160.62 30.2336C160.675 30.2511 160.726 30.2802 160.77 30.3188C160.813 30.3575 160.848 30.4048 160.872 30.4578C160.896 30.5108 160.908 30.5683 160.908 30.6264V33.0834C160.908 33.2132 160.862 33.3386 160.779 33.4372C160.695 33.5358 160.579 33.6012 160.452 33.6216C156.86 34.2066 152.913 33.5358 152.792 29.0898C152.691 25.4394 152.694 22.3883 152.8 19.9365C152.802 19.8937 152.796 19.851 152.781 19.8108C152.766 19.7707 152.743 19.734 152.713 19.703C152.684 19.672 152.648 19.6473 152.609 19.6305C152.57 19.6136 152.527 19.6049 152.484 19.605H150.546C150.401 19.605 150.262 19.5475 150.16 19.4451C150.058 19.3427 150 19.2038 150 19.059V16.8516C150 16.7213 150.052 16.5963 150.144 16.5041C150.236 16.412 150.361 16.3602 150.491 16.3602H152.258C152.397 16.3602 152.53 16.3051 152.628 16.2071C152.726 16.1091 152.781 15.9762 152.781 15.8376V12.5304C152.781 12.3897 152.837 12.2548 152.936 12.1554C153.036 12.0559 153.17 12 153.311 12H156.521C156.679 12 156.831 12.0629 156.943 12.1748C157.055 12.2867 157.117 12.4384 157.117 12.5967V16.1067C157.117 16.1646 157.141 16.2202 157.181 16.2611C157.222 16.3021 157.278 16.3251 157.336 16.3251H160.397Z" fill="black"/>
<path d="M122.381 28.7597C122.427 28.7595 122.473 28.7702 122.514 28.7909C122.556 28.8117 122.592 28.8418 122.619 28.879C122.647 28.9162 122.666 28.9593 122.674 29.005C122.682 29.0506 122.679 29.0975 122.665 29.1419C121.351 33.5996 116.726 35.5067 112.439 34.0364C109.509 33.0328 107.711 30.8722 107.046 27.5546C106.838 26.5172 106.831 25.1106 107.026 23.3348C107.424 19.6532 109.932 16.8062 113.652 16.3577C119.814 15.6128 123.371 20.4215 122.786 26.1233C122.777 26.2111 122.737 26.2926 122.672 26.3517C122.607 26.4108 122.523 26.4434 122.435 26.4431H111.386C111.338 26.4431 111.289 26.4536 111.245 26.474C111.201 26.4944 111.161 26.5241 111.129 26.5611C111.097 26.5981 111.074 26.6416 111.061 26.6885C111.047 26.7355 111.044 26.7848 111.051 26.8331C111.21 27.8809 111.442 28.6206 111.749 29.0522C113.594 31.6379 117.112 31.8016 118.835 29.1067C118.904 29.0004 118.997 28.9128 119.109 28.8522C119.22 28.7915 119.344 28.7597 119.471 28.7597H122.381ZM111.531 23.7092H118.317C118.396 23.7092 118.473 23.6775 118.529 23.6212C118.585 23.5649 118.617 23.4885 118.617 23.4089V23.2919C118.617 22.3165 118.232 21.381 117.547 20.6913C116.861 20.0016 115.932 19.6142 114.963 19.6142H114.885C113.916 19.6142 112.986 20.0016 112.301 20.6913C111.616 21.381 111.23 22.3165 111.23 23.2919V23.4089C111.23 23.4885 111.262 23.5649 111.318 23.6212C111.375 23.6775 111.451 23.7092 111.531 23.7092Z" fill="black"/>
<path d="M136.587 11H133.413C133.185 11 133 11.2648 133 11.5913V33.4087C133 33.7352 133.185 34 133.413 34H136.587C136.815 34 137 33.7352 137 33.4087V11.5913C137 11.2648 136.815 11 136.587 11Z" fill="black"/>
<path d="M179.683 16.164C179.706 16.1639 179.728 16.1693 179.748 16.1796C179.768 16.1899 179.785 16.2049 179.798 16.2232C179.811 16.2416 179.819 16.2628 179.823 16.285C179.826 16.3073 179.823 16.33 179.816 16.3512C177.92 21.7358 175.982 27.1854 174.001 32.7C172.823 35.976 171.957 38.9985 168.233 39.9111C167.086 40.1919 165.773 40.2673 164.294 40.1373C164.278 40.1362 164.263 40.1317 164.25 40.124C164.237 40.1163 164.225 40.1057 164.217 40.0929C164.208 40.0801 164.202 40.0655 164.2 40.0502C164.198 40.0349 164.199 40.0193 164.204 40.0047L165.206 36.6897C165.217 36.6539 165.24 36.6229 165.271 36.6023C165.301 36.5816 165.338 36.5725 165.374 36.5766C167.535 36.8496 168.823 35.9032 169.239 33.7374C169.269 33.5801 169.25 33.4154 169.184 33.2655C166.756 27.8445 164.547 22.3052 162.558 16.6476C162.537 16.5859 162.53 16.5199 162.539 16.4551C162.548 16.3903 162.573 16.3286 162.611 16.2752C162.65 16.2217 162.7 16.1781 162.759 16.1479C162.817 16.1177 162.882 16.1018 162.948 16.1016H166.646C166.769 16.1017 166.89 16.1406 166.99 16.2127C167.09 16.2848 167.165 16.3865 167.203 16.5033L171.119 28.5387C171.133 28.584 171.162 28.6236 171.2 28.6516C171.239 28.6795 171.285 28.6944 171.333 28.6939C171.38 28.6935 171.427 28.6778 171.465 28.6491C171.503 28.6205 171.53 28.5804 171.544 28.5348L175.194 16.4565C175.219 16.3723 175.27 16.2983 175.341 16.2456C175.412 16.1929 175.499 16.1642 175.588 16.164H179.683Z" fill="black"/>
<path d="M144.869 17H141.491C141.22 17 141 17.22 141 17.4914V33.7544C141 34.0258 141.22 34.2458 141.491 34.2458H144.869C145.14 34.2458 145.36 34.0258 145.36 33.7544V17.4914C145.36 17.22 145.14 17 144.869 17Z" fill="black"/>
<path d="M84.8688 17H81.4914C81.22 17 81 17.22 81 17.4914V33.7544C81 34.0258 81.22 34.2458 81.4914 34.2458H84.8688C85.1402 34.2458 85.3602 34.0258 85.3602 33.7544V17.4914C85.3602 17.22 85.1402 17 84.8688 17Z" fill="black"/>
</svg>
